plot ... Woody, Buzz, and the rest of their toy-box friends are dumped in a day-care center after their owner, Andy, departs for collage
i did the best i could ,enjoy please comment and help seed
video
Format : AVI
Format/Info : Audio Video Interleave
File size : 1.98 GiB
Duration : 1h 34mn
Overall bit rate : 3019 Kbps
Writing library : VirtualDub build 32817/release

Video
Format : MPEG-4 Visual
Format profile : Simple@L1
Format settings, BVOP : No
Format settings, QPel : No
Format settings, GMC : No warppoints
Format settings, Matrix : Default
Codec ID : XVID
Codec ID/Hint : XviD
Duration : 1h 34mn
Bit rate : 2882 Kbps
Width : 704 pixels
Height : 352 pixels
Display aspect ratio : 2.000
Frame rate : 25.000 fps
Resolution : 8 bits
Colorimetry : 4:2:0
Scan type : Progressive
Bits/(Pixel*Frame) : 0.465
Stream size : 1.89 GiB (95%)
Writing library : Lavc51.64.0
audio
Format : MPEG Audio
Format version : Version 1
Format profile : Layer 3
Codec ID : 55
Codec ID/Hint : MP3
Duration : 1h 34mn
Bit rate mode : Constant
Bit rate : 128 Kbps
Channel(s) : 2 channels
Sampling rate : 44.1 KHz
Resolution : 16 bits
Stream size : 86.2 MiB (4%)
Alignment : Split accross interleaves
Interleave, duration : 40 ms (1.00 video frame)
Interleave, preload durati



Screens
 
http://postimg.com/image/17000/16674.jpg